<svg id="icon-kochen" xmlns="http://www.w3.org/2000/svg" width="170.2" height="170.2" viewBox="0 0 170.2 170.2">
  <circle id="Ellipse_6" data-name="Ellipse 6" cx="83.1" cy="83.1" r="83.1" transform="translate(2 2)" fill="none" stroke="#cbd63d" stroke-miterlimit="10" stroke-width="4"/>
  <line id="Linie_16" data-name="Linie 16" x2="12.7" transform="translate(70.4 78.6)" fill="none" stroke="#cbd63d" stroke-miterlimit="10" stroke-width="4"/>
  <line id="Linie_17" data-name="Linie 17" x2="8.3" transform="translate(89.3 97.2)" fill="none" stroke="#cbd63d" stroke-miterlimit="10" stroke-width="4"/>
  <line id="Linie_18" data-name="Linie 18" x2="9.3" transform="translate(71.9 91.2)" fill="none" stroke="#cbd63d" stroke-miterlimit="10" stroke-width="4"/>
  <line id="Linie_19" data-name="Linie 19" x2="8.8" transform="translate(84.9 119.7)" fill="none" stroke="#cbd63d" stroke-miterlimit="10" stroke-width="4"/>
  <path id="Pfad_1451" data-name="Pfad 1451" d="M99.9,78.5c-.6-14.7-13-14.1-14.2-14-1.2-.1-13.6-.7-14.2,14-.7,15.5,6.2,43.4,9.1,51,1.5,3.8,3.1,7,4.8,7.6h.5c1.7-.6,3.4-3.7,4.8-7.6C93.7,121.9,100.5,93.9,99.9,78.5Z" fill="none" stroke="#cbd63d" stroke-miterlimit="10" stroke-width="4"/>
  <g id="Gruppe_59" data-name="Gruppe 59">
    <path id="Pfad_1452" data-name="Pfad 1452" d="M83.9,64s-.7-9.4-11.5-7.2a22.485,22.485,0,0,1-18.2-4.2" fill="none" stroke="#cbd63d" stroke-linecap="round" stroke-miterlimit="10" stroke-width="4"/>
    <line id="Linie_20" data-name="Linie 20" x2="1.9" y2="6.5" transform="translate(59.7 48.1)" fill="none" stroke="#cbd63d" stroke-linecap="round" stroke-miterlimit="10" stroke-width="4"/>
    <path id="Pfad_1453" data-name="Pfad 1453" d="M54,59.8c.5-.1,8.6-3.5,8.6-3.5" fill="none" stroke="#cbd63d" stroke-linecap="round" stroke-miterlimit="10" stroke-width="4"/>
    <path id="Pfad_1454" data-name="Pfad 1454" d="M84.6,63.1s2.6-7.8-3.5-13.5S69.1,42.5,67,36.8" fill="none" stroke="#cbd63d" stroke-linecap="round" stroke-miterlimit="10" stroke-width="4"/>
    <path id="Pfad_1455" data-name="Pfad 1455" d="M74.7,35.3s-2.2,7.1-1.8,7.3" fill="none" stroke="#cbd63d" stroke-linecap="round" stroke-miterlimit="10" stroke-width="4"/>
    <path id="Pfad_1456" data-name="Pfad 1456" d="M65.8,44.8c.7-.1,7.1-1,7.1-1" fill="none" stroke="#cbd63d" stroke-linecap="round" stroke-miterlimit="10" stroke-width="4"/>
  </g>
  <g id="Gruppe_60" data-name="Gruppe 60">
    <path id="Pfad_1457" data-name="Pfad 1457" d="M86.3,64s.7-9.4,11.5-7.2A22.485,22.485,0,0,0,116,52.6" fill="none" stroke="#cbd63d" stroke-linecap="round" stroke-miterlimit="10" stroke-width="4"/>
    <line id="Linie_21" data-name="Linie 21" x1="1.8" y2="6.5" transform="translate(108.6 48.1)" fill="none" stroke="#cbd63d" stroke-linecap="round" stroke-miterlimit="10" stroke-width="4"/>
    <path id="Pfad_1458" data-name="Pfad 1458" d="M116.2,59.8c-.5-.1-8.6-3.5-8.6-3.5" fill="none" stroke="#cbd63d" stroke-linecap="round" stroke-miterlimit="10" stroke-width="4"/>
    <path id="Pfad_1459" data-name="Pfad 1459" d="M85.5,63.1S82.9,55.3,89,49.6s12.1-7.2,14.1-12.8" fill="none" stroke="#cbd63d" stroke-linecap="round" stroke-miterlimit="10" stroke-width="4"/>
    <path id="Pfad_1460" data-name="Pfad 1460" d="M95.4,35.3s2.2,7.1,1.8,7.3" fill="none" stroke="#cbd63d" stroke-linecap="round" stroke-miterlimit="10" stroke-width="4"/>
    <path id="Pfad_1461" data-name="Pfad 1461" d="M104.3,44.8c-.7-.1-7.1-1-7.1-1" fill="none" stroke="#cbd63d" stroke-linecap="round" stroke-miterlimit="10" stroke-width="4"/>
  </g>
</svg>
