<svg id="icon-abnehmen" xmlns="http://www.w3.org/2000/svg" width="170.2" height="170.2" viewBox="0 0 170.2 170.2">
  <path id="Pfad_1446" data-name="Pfad 1446" d="M54,47.3s11.4,9.5,11.4,32.3c0,10.6-7.6,18.6-11.8,27.8s-3,13.3-3,13.3" fill="none" stroke="#cbd63d" stroke-linecap="round" stroke-miterlimit="10" stroke-width="4"/>
  <path id="Pfad_1447" data-name="Pfad 1447" d="M115.9,47.3s-11.4,9.5-11.4,32.3c0,10.6,7.6,18.6,11.8,27.8s3,13.3,3,13.3" fill="none" stroke="#cbd63d" stroke-linecap="round" stroke-miterlimit="10" stroke-width="4"/>
  <circle id="Ellipse_4" data-name="Ellipse 4" cx="3.2" cy="3.2" r="3.2" transform="translate(81.8 91.8)" fill="#cbd63d"/>
  <path id="Pfad_1448" data-name="Pfad 1448" d="M56.3,100.9s9.9,7.2,28.5,6.8,27.4-5.7,27.4-5.7" fill="none" stroke="#cbd63d" stroke-miterlimit="10" stroke-width="4"/>
  <line id="Linie_14" data-name="Linie 14" x2="14.8" transform="translate(36.2 77.4)" fill="none" stroke="#cbd63d" stroke-miterlimit="10" stroke-width="4"/>
  <g id="Gruppe_58" data-name="Gruppe 58">
    <line id="Linie_15" data-name="Linie 15" x1="14.8" transform="translate(119.1 77.4)" fill="none" stroke="#cbd63d" stroke-miterlimit="10" stroke-width="4"/>
    <path id="Pfad_1449" data-name="Pfad 1449" d="M114.2,77.3l6.2,6.2V71.1Z" fill="#cbd63d"/>
  </g>
  <circle id="Ellipse_5" data-name="Ellipse 5" cx="83.1" cy="83.1" r="83.1" transform="translate(2 2)" fill="none" stroke="#cbd63d" stroke-miterlimit="10" stroke-width="4"/>
  <path id="Pfad_1450" data-name="Pfad 1450" d="M55.8,77.3l-6.2-6.2V83.5Z" fill="#cbd63d"/>
</svg>
