<svg id="logo-heynewme-end" xmlns="http://www.w3.org/2000/svg" width="226.459" height="226.459" viewBox="0 0 226.459 226.459">
  <rect id="Rechteck_56" data-name="Rechteck 56" width="226.459" height="226.459"/>
  <path id="Me" d="M52.265,130.912a5.665,5.665,0,1,0,5.665,5.665A5.672,5.672,0,0,0,52.265,130.912Zm93.983,20.917c-8.28,1.888-18.448.436-25.711-4.358a12.757,12.757,0,0,1-5.81-8.861,38.092,38.092,0,0,0,8.716-11.04,38.758,38.758,0,0,0,2.905-6.682c.581-1.888,1.453-4.358.872-6.391-.872-2.615-4.213-2.469-6.391-1.888a10.756,10.756,0,0,0-6.682,4.794c-3.922,5.81-7.7,14.816-6.537,22.37a25.237,25.237,0,0,1-5.229,3.486.142.142,0,0,0-.145.145l-.436-.436a5.6,5.6,0,0,1-.872-2.615,74.194,74.194,0,0,1-.726-7.989c-.581-5.665-1.017-11.33-1.6-17-.145-1.743-6.391.436-6.972,1.453-2.034,4.358-4.067,8.716-5.956,13.073-.145-4.358-.436-8.57-.581-12.928,0-.872-2.469-.436-2.905-.436a5.946,5.946,0,0,0-3.777,1.6,47.82,47.82,0,0,0-6.827,8.57c-.291-3.777-.291-7.7-.291-11.475,0-1.162-6.972-.291-6.972,1.888a205.807,205.807,0,0,0,1.307,23.241c.145,1.6,6.537-.145,6.972-1.453a43.148,43.148,0,0,1,5.81-13.219c.291,6.1.581,12.2.872,18.448.145,1.743,6.391-.291,6.972-1.453,2.179-4.648,4.358-9.442,6.391-14.09.291,2.615.436,5.229.726,7.844.291,2.469,0,5.52,1.162,7.844,1.162,2.469,3.486,2.76,5.956,2.324a21.326,21.326,0,0,0,7.989-3.341,10.484,10.484,0,0,0,2.034,3.486c3.777,4.648,10.749,6.827,16.414,7.844a51.783,51.783,0,0,0,20.046-.581c.726-.145,3.486-1.017,3.2-2.034C149.734,150.957,146.829,151.684,146.248,151.829Zm-29.633-27.018a33.469,33.469,0,0,1,2.905-6.1,9.77,9.77,0,0,1,1.017-1.6,11.666,11.666,0,0,1-.581,3.922c-.581,1.888-1.307,3.777-2.034,5.665a30.817,30.817,0,0,1-3.05,5.229A23.252,23.252,0,0,1,116.615,124.811Z" transform="translate(21.091 50.807)" fill="#cbd73e"/>
  <path id="NEW" d="M59.135,100.174,38.072,68.8l-.436-.581-.436-.581H31.1v47.645h7.263V82.307L59.28,113.828l.436.581.436.581h6.1v-47.5H58.99v32.683Zm18.012,14.962h29.778v-7.263H84.41V98.285h22.515V91.022H84.41V74.463h22.515V67.2H77.147Zm83.088-47.645-.291,1.162-5.52,29.2-9.732-29.342-.291-1.017h-5.665l-.291,1.017L128.714,97.85l-5.52-29.2-.291-1.162H115.5l.291,1.743,8.425,44.74.291,1.162h5.956l.291-1.017L141.5,81.871l10.749,32.247.291,1.017h5.956l.291-1.162,8.425-44.74.291-1.743h-7.263Z" transform="translate(14.076 30.414)" fill="#fff"/>
  <path id="Hey" d="M61.1,36.212H57.173V18.2H44.1V68.314H57.173V47.4H61.1V68.46H74.169V18.2H61.1V36.212Zm67.255-8.861L126.317,55.1l-4.067-27.744h-11.33l6.827,34.426a23.832,23.832,0,0,1,.726,4.358,1.168,1.168,0,0,1-.872,1.307,17.21,17.21,0,0,1-3.777.291V74.27h7.553a30.327,30.327,0,0,0,7.553-.726,7.384,7.384,0,0,0,3.631-2.469,11.264,11.264,0,0,0,1.888-4.213c.436-1.743.872-4.939,1.453-9.587L139.535,27.5H128.35Zm-26.292,1.162a19.2,19.2,0,0,0-16.269-.436A10.917,10.917,0,0,0,81,32.871c-1.017,2.034-1.453,4.939-1.453,8.57V53.5a28.842,28.842,0,0,0,.581,6.972,10.6,10.6,0,0,0,2.324,4.358,13.185,13.185,0,0,0,4.794,3.2,17.58,17.58,0,0,0,6.972,1.162,18.586,18.586,0,0,0,6.827-1.162,9.747,9.747,0,0,0,4.5-3.486,12.183,12.183,0,0,0,2.179-4.358,29.479,29.479,0,0,0,.436-5.81v-3.05H96.248v5.375a11.823,11.823,0,0,1-.436,4.067,1.843,1.843,0,0,1-1.888,1.017,1.669,1.669,0,0,1-1.6-.872,9.46,9.46,0,0,1-.436-3.631V48.414h16.269v-5.52a26.346,26.346,0,0,0-1.307-9.3A12.2,12.2,0,0,0,102.058,28.513ZM95.667,41.877H92.035v-3.05a19.294,19.294,0,0,1,.291-4.213c.145-.581.726-.726,1.6-.726a1.458,1.458,0,0,1,1.453.872,13.205,13.205,0,0,1,.291,4.067v3.05Z" transform="translate(19.959 8.237)" fill="#fff"/>
</svg>
